{
  "accessors": [
    {
      "bufferView": 2,
      "componentType": 5126,
      "count": 1286,
      "max": [
        0.13881435990333557,
        5.516678810119629,
        1.932137370109558
      ],
      "min": [
        -0.13881459832191467,
        0.0,
        -0.10899914801120758
      ],
      "type": "VEC3"
    },
    {
      "bufferView": 2,
      "byteOffset": 15432,
      "componentType": 5126,
      "count": 1286,
      "max": [
        1.0,
        1.0,
        1.0
      ],
      "min": [
        -1.0,
        -1.0,
        -1.0
      ],
      "type": "VEC3"
    },
    {
      "bufferView": 3,
      "componentType": 5126,
      "count": 1286,
      "max": [
        1.0,
        1.0,
        1.0,
        1.0
      ],
      "min": [
        -1.0,
        -0.9999478459358215,
        -1.0,
        1.0
      ],
      "type": "VEC4"
    },
    {
      "bufferView": 1,
      "componentType": 5126,
      "count": 1286,
      "max": [
        0.938857913017273,
        0.9670712947845459
      ],
      "min": [
        0.03292874991893768,
        0.0329287126660347
      ],
      "type": "VEC2"
    },
    {
      "bufferView": 1,
      "byteOffset": 10288,
      "componentType": 5126,
      "count": 1286,
      "max": [
        0.938857913017273,
        0.9670712947845459
      ],
      "min": [
        0.03292874991893768,
        0.0329287126660347
      ],
      "type": "VEC2"
    },
    {
      "bufferView": 1,
      "byteOffset": 20576,
      "componentType": 5126,
      "count": 1286,
      "max": [
        0.938857913017273,
        0.9670712947845459
      ],
      "min": [
        0.03292874991893768,
        0.0329287126660347
      ],
      "type": "VEC2"
    },
    {
      "bufferView": 1,
      "byteOffset": 30864,
      "componentType": 5126,
      "count": 1286,
      "max": [
        0.938857913017273,
        0.9670712947845459
      ],
      "min": [
        0.03292874991893768,
        0.0329287126660347
      ],
      "type": "VEC2"
    },
    {
      "bufferView": 0,
      "componentType": 5125,
      "count": 4812,
      "type": "SCALAR"
    },
    {
      "bufferView": 2,
      "byteOffset": 30864,
      "componentType": 5126,
      "count": 208,
      "max": [
        0.10442586243152618,
        5.326391696929932,
        1.8899766206741333
      ],
      "min": [
        -0.10806240886449814,
        5.25033712387085,
        1.6243963241577148
      ],
      "type": "VEC3"
    },
    {
      "bufferView": 2,
      "byteOffset": 33360,
      "componentType": 5126,
      "count": 208,
      "max": [
        1.0,
        1.0,
        1.0
      ],
      "min": [
        -1.0,
        -1.0,
        -1.0
      ],
      "type": "VEC3"
    },
    {
      "bufferView": 3,
      "byteOffset": 20576,
      "componentType": 5126,
      "count": 208,
      "max": [
        0.9988012909889221,
        1.0054312951979227e-05,
        0.4776078760623932,
        1.0
      ],
      "min": [
        -0.9988048076629639,
        -0.9998029470443726,
        -0.4775584936141968,
        1.0
      ],
      "type": "VEC4"
    },
    {
      "bufferView": 1,
      "byteOffset": 41152,
      "componentType": 5126,
      "count": 208,
      "max": [
        0.9517108201980591,
        0.8052676320075989
      ],
      "min": [
        0.4022911489009857,
        0.032928768545389175
      ],
      "type": "VEC2"
    },
    {
      "bufferView": 1,
      "byteOffset": 42816,
      "componentType": 5126,
      "count": 208,
      "max": [
        0.9517108201980591,
        0.8052676320075989
      ],
      "min": [
        0.4022911489009857,
        0.032928768545389175
      ],
      "type": "VEC2"
    },
    {
      "bufferView": 1,
      "byteOffset": 44480,
      "componentType": 5126,
      "count": 208,
      "max": [
        0.9517108201980591,
        0.8052676320075989
      ],
      "min": [
        0.4022911489009857,
        0.032928768545389175
      ],
      "type": "VEC2"
    },
    {
      "bufferView": 1,
      "byteOffset": 46144,
      "componentType": 5126,
      "count": 208,
      "max": [
        0.9517108201980591,
        0.8052676320075989
      ],
      "min": [
        0.4022911489009857,
        0.032928768545389175
      ],
      "type": "VEC2"
    },
    {
      "bufferView": 1,
      "byteOffset": 47808,
      "componentType": 5126,
      "count": 208,
      "max": [
        0.9517108201980591,
        0.8052676320075989
      ],
      "min": [
        0.4022911489009857,
        0.032928768545389175
      ],
      "type": "VEC2"
    },
    {
      "bufferView": 0,
      "byteOffset": 19248,
      "componentType": 5125,
      "count": 858,
      "type": "SCALAR"
    },
    {
      "bufferView": 2,
      "byteOffset": 35856,
      "componentType": 5126,
      "count": 2344,
      "max": [
        1.728846549987793,
        5.679355621337891,
        0.1784507930278778
      ],
      "min": [
        -1.728846549987793,
        0.0,
        -0.1784507930278778
      ],
      "type": "VEC3"
    },
    {
      "bufferView": 2,
      "byteOffset": 63984,
      "componentType": 5126,
      "count": 2344,
      "max": [
        1.0,
        1.0,
        1.0
      ],
      "min": [
        -1.0,
        -1.0,
        -1.0
      ],
      "type": "VEC3"
    },
    {
      "bufferView": 3,
      "byteOffset": 23904,
      "componentType": 5126,
      "count": 2344,
      "max": [
        1.0,
        1.0,
        1.0,
        1.0
      ],
      "min": [
        -1.0,
        -1.0,
        -1.0,
        1.0
      ],
      "type": "VEC4"
    },
    {
      "bufferView": 1,
      "byteOffset": 49472,
      "componentType": 5126,
      "count": 2344,
      "max": [
        0.955891489982605,
        0.9584184288978577
      ],
      "min": [
        0.036041148006916046,
        0.03604111820459366
      ],
      "type": "VEC2"
    },
    {
      "bufferView": 1,
      "byteOffset": 68224,
      "componentType": 5126,
      "count": 2344,
      "max": [
        0.955891489982605,
        0.9584184288978577
      ],
      "min": [
        0.036041148006916046,
        0.03604111820459366
      ],
      "type": "VEC2"
    },
    {
      "bufferView": 1,
      "byteOffset": 86976,
      "componentType": 5126,
      "count": 2344,
      "max": [
        0.955891489982605,
        0.9584184288978577
      ],
      "min": [
        0.036041148006916046,
        0.03604111820459366
      ],
      "type": "VEC2"
    },
    {
      "bufferView": 1,
      "byteOffset": 105728,
      "componentType": 5126,
      "count": 2344,
      "max": [
        0.955891489982605,
        0.9584184288978577
      ],
      "min": [
        0.036041148006916046,
        0.03604111820459366
      ],
      "type": "VEC2"
    },
    {
      "bufferView": 0,
      "byteOffset": 22680,
      "componentType": 5125,
      "count": 9822,
      "type": "SCALAR"
    },
    {
      "bufferView": 2,
      "byteOffset": 92112,
      "componentType": 5126,
      "count": 386,
      "max": [
        1.6914507150650024,
        5.571521282196045,
        0.09629984200000763
      ],
      "min": [
        -1.6914507150650024,
        5.504062175750732,
        -0.0962994173169136
      ],
      "type": "VEC3"
    },
    {
      "bufferView": 2,
      "byteOffset": 96744,
      "componentType": 5126,
      "count": 386,
      "max": [
        1.0,
        1.0,
        1.0
      ],
      "min": [
        -1.0,
        -1.0,
        -1.0
      ],
      "type": "VEC3"
    },
    {
      "bufferView": 3,
      "byteOffset": 61408,
      "componentType": 5126,
      "count": 386,
      "max": [
        0.6326876878738403,
        0.9993656873703003,
        0.996499240398407,
        1.0
      ],
      "min": [
        -0.4901766777038574,
        -0.9993656873703003,
        -1.1422000767424834e-07,
        1.0
      ],
      "type": "VEC4"
    },
    {
      "bufferView": 1,
      "byteOffset": 124480,
      "componentType": 5126,
      "count": 386,
      "max": [
        0.9254270195960999,
        0.9639590382575989
      ],
      "min": [
        0.1752719134092331,
        0.25622835755348206
      ],
      "type": "VEC2"
    },
    {
      "bufferView": 1,
      "byteOffset": 127568,
      "componentType": 5126,
      "count": 386,
      "max": [
        0.9254270195960999,
        0.9639590382575989
      ],
      "min": [
        0.1752719134092331,
        0.25622835755348206
      ],
      "type": "VEC2"
    },
    {
      "bufferView": 1,
      "byteOffset": 130656,
      "componentType": 5126,
      "count": 386,
      "max": [
        0.9254270195960999,
        0.9639590382575989
      ],
      "min": [
        0.1752719134092331,
        0.25622835755348206
      ],
      "type": "VEC2"
    },
    {
      "bufferView": 1,
      "byteOffset": 133744,
      "componentType": 5126,
      "count": 386,
      "max": [
        0.9254270195960999,
        0.9639590382575989
      ],
      "min": [
        0.1752719134092331,
        0.25622835755348206
      ],
      "type": "VEC2"
    },
    {
      "bufferView": 1,
      "byteOffset": 136832,
      "componentType": 5126,
      "count": 386,
      "max": [
        0.9254270195960999,
        0.9639590382575989
      ],
      "min": [
        0.1752719134092331,
        0.25622835755348206
      ],
      "type": "VEC2"
    },
    {
      "bufferView": 0,
      "byteOffset": 61968,
      "componentType": 5125,
      "count": 1716,
      "type": "SCALAR"
    }
  ],
  "asset": {
    "extras": {
      "author": "Zuhaib Khoso (https://sketchfab.com/zuhaibkhoso)",
      "license": "SKETCHFAB Standard (https://sketchfab.com/licenses)",
      "source": "https://sketchfab.com/3d-models/street-light-pack-b158f2a350d0421a9bacfad9fe01bdc8",
      "title": "Street Light Pack"
    },
    "generator": "Sketchfab-16.45.0",
    "version": "2.0"
  },
  "bufferViews": [
    {
      "buffer": 0,
      "byteLength": 68832,
      "name": "floatBufferViews",
      "target": 34963
    },
    {
      "buffer": 0,
      "byteLength": 139920,
      "byteOffset": 68832,
      "byteStride": 8,
      "name": "floatBufferViews",
      "target": 34962
    },
    {
      "buffer": 0,
      "byteLength": 101376,
      "byteOffset": 208752,
      "byteStride": 12,
      "name": "floatBufferViews",
      "target": 34962
    },
    {
      "buffer": 0,
      "byteLength": 67584,
      "byteOffset": 310128,
      "byteStride": 16,
      "name": "floatBufferViews",
      "target": 34962
    }
  ],
  "buffers": [
    {
      "byteLength": 377712,
      "uri": "scene.bin"
    }
  ],
  "images": [
    {
      "uri": "textures/Street_Light_1_baseColor.png"
    },
    {
      "uri": "textures/Street_Light_1_metallicRoughness.png"
    },
    {
      "uri": "textures/Street_Light_1_normal.png"
    },
    {
      "uri": "textures/Street_Light_2_baseColor.png"
    },
    {
      "uri": "textures/Street_Light_2_metallicRoughness.png"
    },
    {
      "uri": "textures/Street_Light_2_normal.png"
    }
  ],
  "materials": [
    {
      "doubleSided": true,
      "name": "Street_Light_1",
      "normalTexture": {
        "index": 2
      },
      "pbrMetallicRoughness": {
        "baseColorTexture": {
          "index": 0
        },
        "metallicRoughnessTexture": {
          "index": 1
        }
      }
    },
    {
      "doubleSided": true,
      "emissiveFactor": [
        1.0,
        1.0,
        1.0
      ],
      "emissiveTexture": {
        "index": 0
      },
      "name": "Light_1",
      "normalTexture": {
        "index": 2
      },
      "pbrMetallicRoughness": {
        "baseColorTexture": {
          "index": 0
        },
        "metallicRoughnessTexture": {
          "index": 1
        }
      }
    },
    {
      "doubleSided": true,
      "name": "Street_Light_2",
      "normalTexture": {
        "index": 5,
        "texCoord": 2
      },
      "pbrMetallicRoughness": {
        "baseColorTexture": {
          "index": 3
        },
        "metallicRoughnessTexture": {
          "index": 4,
          "texCoord": 1
        }
      }
    },
    {
      "doubleSided": true,
      "emissiveFactor": [
        1.0,
        1.0,
        1.0
      ],
      "emissiveTexture": {
        "index": 3
      },
      "name": "Light_2",
      "normalTexture": {
        "index": 5
      },
      "pbrMetallicRoughness": {
        "baseColorTexture": {
          "index": 3
        },
        "metallicRoughnessTexture": {
          "index": 4
        }
      }
    }
  ],
  "meshes": [
    {
      "name": "Object_0",
      "primitives": [
        {
          "attributes": {
            "NORMAL": 1,
            "POSITION": 0,
            "TANGENT": 2,
            "TEXCOORD_0": 3,
            "TEXCOORD_1": 4,
            "TEXCOORD_2": 5,
            "TEXCOORD_3": 6
          },
          "indices": 7,
          "material": 0,
          "mode": 4
        }
      ]
    },
    {
      "name": "Object_1",
      "primitives": [
        {
          "attributes": {
            "NORMAL": 9,
            "POSITION": 8,
            "TANGENT": 10,
            "TEXCOORD_0": 11,
            "TEXCOORD_1": 12,
            "TEXCOORD_2": 13,
            "TEXCOORD_3": 14,
            "TEXCOORD_4": 15
          },
          "indices": 16,
          "material": 1,
          "mode": 4
        }
      ]
    },
    {
      "name": "Object_2",
      "primitives": [
        {
          "attributes": {
            "NORMAL": 18,
            "POSITION": 17,
            "TANGENT": 19,
            "TEXCOORD_0": 20,
            "TEXCOORD_1": 21,
            "TEXCOORD_2": 22,
            "TEXCOORD_3": 23
          },
          "indices": 24,
          "material": 2,
          "mode": 4
        }
      ]
    },
    {
      "name": "Object_3",
      "primitives": [
        {
          "attributes": {
            "NORMAL": 26,
            "POSITION": 25,
            "TANGENT": 27,
            "TEXCOORD_0": 28,
            "TEXCOORD_1": 29,
            "TEXCOORD_2": 30,
            "TEXCOORD_3": 31,
            "TEXCOORD_4": 32
          },
          "indices": 33,
          "material": 3,
          "mode": 4
        }
      ]
    }
  ],
  "nodes": [
    {
      "children": [
        1
      ],
      "matrix": [
        1.0,
        0.0,
        0.0,
        0.0,
        0.0,
        2.220446049250313e-16,
        -1.0,
        0.0,
        0.0,
        1.0,
        2.220446049250313e-16,
        0.0,
        0.0,
        0.0,
        0.0,
        1.0
      ],
      "name": "Sketchfab_model"
    },
    {
      "children": [
        2
      ],
      "name": "root"
    },
    {
      "children": [
        3
      ],
      "matrix": [
        1.0,
        0.0,
        0.0,
        0.0,
        0.0,
        2.220446049250313e-16,
        1.0,
        0.0,
        0.0,
        -1.0,
        2.220446049250313e-16,
        0.0,
        0.0,
        0.0,
        0.0,
        1.0
      ],
      "name": "GLTF_SceneRootNode"
    },
    {
      "children": [
        4,
        7
      ],
      "name": "Street Light Pack_2"
    },
    {
      "children": [
        5,
        6
      ],
      "matrix": [
        1.0,
        0.0,
        0.0,
        0.0,
        0.0,
        1.0,
        0.0,
        0.0,
        0.0,
        0.0,
        1.0,
        0.0,
        0.0,
        0.0,
        0.18090379238128662,
        1.0
      ],
      "name": "Street Light 1_0"
    },
    {
      "mesh": 0,
      "name": "Object_5"
    },
    {
      "mesh": 1,
      "name": "Object_6"
    },
    {
      "children": [
        8,
        9
      ],
      "matrix": [
        1.0,
        0.0,
        0.0,
        0.0,
        0.0,
        1.0,
        0.0,
        0.0,
        0.0,
        0.0,
        1.0,
        0.0,
        0.0,
        0.0,
        -0.2655339241027832,
        1.0
      ],
      "name": "Street Light 2_1"
    },
    {
      "mesh": 2,
      "name": "Object_8"
    },
    {
      "mesh": 3,
      "name": "Object_9"
    }
  ],
  "samplers": [
    {
      "magFilter": 9729,
      "minFilter": 9987,
      "wrapS": 10497,
      "wrapT": 10497
    }
  ],
  "scene": 0,
  "scenes": [
    {
      "name": "Sketchfab_Scene",
      "nodes": [
        0
      ]
    }
  ],
  "textures": [
    {
      "sampler": 0,
      "source": 0
    },
    {
      "sampler": 0,
      "source": 1
    },
    {
      "sampler": 0,
      "source": 2
    },
    {
      "sampler": 0,
      "source": 3
    },
    {
      "sampler": 0,
      "source": 4
    },
    {
      "sampler": 0,
      "source": 5
    }
  ]
}
